<?xml version="1.0" encoding="utf-8" standalone="yes"?>
<!DOCTYPE svg PUBLIC "-//W3C//DTD SVG 1.1//EN" "http://www.w3.org/Graphics/SVG/1.1/DTD/svg11.dtd">
<svg style="fill:none;stroke:none;fill-rule:evenodd;clip-rule:evenodd;stroke-linecap:round;stroke-linejoin:round;stroke-miterlimit:1.5;" version="1.1" xmlns="http://www.w3.org/2000/svg" xmlns:xlink="http://www.w3.org/1999/xlink" width="1020" height="721" viewBox="0 0 1020 721"><style class="text-font-style fontImports" data-font-family="Roboto">@import url(https://fonts.googleapis.com/css2?family=Roboto:wght@400;700&amp;amp;display=block);</style><g id="items" style="isolation: isolate"><g id="blend" style="mix-blend-mode: normal"><g id="g-root-cp_3_g-3_hu1bmz1f4p3pd-fill" data-item-order="-606739" transform="translate(242, 386.10205078125)"><g id="cp_3_g-3_hu1bmz1f4p3pd-fill-merged" stroke="none" fill="#4f92ff" fill-opacity="1"><g><path d="M10 130.124L41 82.124L10 34.124 H172.523C186.593 34.123 200.063 28.422 209.857 18.32L217.924 10L221 13.123C243.991 36.843 274.101 52.041 306.418 56.64L278.78 85.146C250.905 113.896 212.569 130.123 172.523 130.123 H10"></path></g></g></g><g id="g-root-cp_2_g-2_4j7acr1f4p24i-fill" data-item-order="-606735" transform="translate(242, 266.22705078125)"><g id="cp_2_g-2_4j7acr1f4p24i-fill-merged" stroke="none" fill="#4f92ff" fill-opacity="1"><g><path d="M368.856 177.992 H327.271C287.218 177.992 248.876 161.759 221 132.999L209.978 121.808C200.184 111.703 186.712 106 172.64 106 H10L41 58L10 10 H172.64C212.692 10 251.034 26.233 278.91 54.992L289.932 66.184C299.727 76.288 313.198 81.992 327.271 81.992 H367.682L414.37 131.04L368.856 177.992"></path></g></g></g><g id="g-root-cp_4_g-4_1uooc2z1f4p2q3-fill" data-item-order="-606731" transform="translate(242.00003051757812, 387.26611328125)"><g id="cp_4_g-4_1uooc2z1f4p2q3-fill-merged" stroke="none" fill="#4f92ff" fill-opacity="1"><g><path d="M10 272.959L41 224.959L10 176.959 H177.589C225.486 176.959 271.339 157.548 304.677 123.157L414.37 10L424.533 20.677C445.278 42.076 473.208 54.876 502.777 56.726L373.606 189.976C322.186 243.02 251.464 272.959 177.589 272.959 H10"></path></g></g></g><g id="g-root-cp_1_g-1_1q8utyj1f4p3ic-fill" data-item-order="-606727" transform="translate(242, 122.22705078125)"><g id="cp_1_g-1_1q8utyj1f4p3ic-fill-merged" stroke="none" fill="#4f92ff" fill-opacity="1"><g><path d="M41 58L10 10 H177.589C251.464 10 322.186 39.94 373.606 92.983L493.462 218.898C497.863 223.438 503.915 226 510.238 226L717 225.5L748 274L717 321.5L510.238 322C477.937 322 447.016 308.909 424.533 285.717L304.677 159.802C271.339 125.411 225.486 106 177.589 106 H10L41 58"></path></g></g></g><g id="g-root-tx_pauligat_1cy0sob1f4p1xh-fill" data-item-order="0" transform="translate(290, 38)"><g id="tx_pauligat_1cy0sob1f4p1xh-fill-merged" stroke="none" fill="#4f92ff" fill-opacity="1"><g><text style="font: bold 25px Roboto, sans-serif; white-space: pre;" transform="translate(220, 28)" font-weight="bold" font-size="25px" font-family="Roboto, sans-serif"><tspan x="-207.64" y="15" dominant-baseline="ideographic">Pauli Gates in Quantum Computation</tspan></text></g></g></g><g id="g-root-tx_1_hvwqwb1f4ru9y-fill" data-item-order="0" transform="translate(26, 146)"><g id="tx_1_hvwqwb1f4ru9y-fill-merged" stroke="none" fill="#4f92ff" fill-opacity="1"><g><text style="font: bold 20px Roboto, sans-serif; white-space: pre;" transform="translate(40, 34)" font-weight="bold" font-size="20px" font-family="Roboto, sans-serif"><tspan x="-5.74" y="12" dominant-baseline="ideographic">1</tspan></text></g></g></g><g id="g-root-tx_leavesth_909qnf1f4rv2n-fill" data-item-order="0" transform="translate(86, 140.22705078125)"><g id="tx_leavesth_909qnf1f4rv2n-fill-merged" stroke="none" fill="#4f92ff" fill-opacity="1"><g><text style="font: 15px Roboto, sans-serif; white-space: pre;" transform="translate(10, 40)" font-size="15px" font-family="Roboto, sans-serif"><tspan x="2" y="-9" dominant-baseline="ideographic">Leaves the qubit </tspan><tspan x="2" y="9" dominant-baseline="ideographic">unchanged, serving </tspan><tspan x="2" y="27" dominant-baseline="ideographic">as a baseline.</tspan></text></g></g></g><g id="g-root-tx_identity_4mbnsb1f4ruvb-fill" data-item-order="0" transform="translate(290, 158.22705078125)"><g id="tx_identity_4mbnsb1f4ruvb-fill-merged" stroke="none" fill="#ffffff" fill-opacity="1"><g><text style="font: bold 20px Roboto, sans-serif; white-space: pre;" transform="translate(10, 22)" font-weight="bold" font-size="20px" font-family="Roboto, sans-serif"><tspan x="2" y="12" dominant-baseline="ideographic">Identity Gate</tspan></text></g></g></g><g id="g-root-tx_2_4mqej1f4rwn4-fill" data-item-order="0" transform="translate(26, 290)"><g id="tx_2_4mqej1f4rwn4-fill-merged" stroke="none" fill="#4f92ff" fill-opacity="1"><g><text style="font: bold 20px Roboto, sans-serif; white-space: pre;" transform="translate(40, 34)" font-weight="bold" font-size="20px" font-family="Roboto, sans-serif"><tspan x="-5.74" y="12" dominant-baseline="ideographic">2</tspan></text></g></g></g><g id="g-root-tx_flipsthe_1qaq97v1f4ru2x-fill" data-item-order="0" transform="translate(86, 284.22705078125)"><g id="tx_flipsthe_1qaq97v1f4ru2x-fill-merged" stroke="none" fill="#4f92ff" fill-opacity="1"><g><text style="font: 15px Roboto, sans-serif; white-space: pre;" transform="translate(10, 40)" font-size="15px" font-family="Roboto, sans-serif"><tspan x="2" y="-9" dominant-baseline="ideographic">Flips the qubit state, </tspan><tspan x="2" y="9" dominant-baseline="ideographic">acting as a NOT </tspan><tspan x="2" y="27" dominant-baseline="ideographic">gate.</tspan></text></g></g></g><g id="g-root-tx_paulixga_6i5nv1f4rvnk-fill" data-item-order="0" transform="translate(290, 302.22705078125)"><g id="tx_paulixga_6i5nv1f4rvnk-fill-merged" stroke="none" fill="#ffffff" fill-opacity="1"><g><text style="font: bold 20px Roboto, sans-serif; white-space: pre;" transform="translate(10, 22)" font-weight="bold" font-size="20px" font-family="Roboto, sans-serif"><tspan x="2" y="12" dominant-baseline="ideographic">Pauli-X Gate</tspan></text></g></g></g><g id="g-root-ic_comp_mbq90r1f4p1xi-fill" data-item-order="0" transform="translate(902, 362.22705078125)"></g><g id="g-root-tx_singlequ_9255wr1f4ru32-fill" data-item-order="0" transform="translate(746, 356.22705078125)"><g id="tx_singlequ_9255wr1f4ru32-fill-merged" stroke="none" fill="#4f92ff" fill-opacity="1"><g><text style="font: bold 20px Roboto, sans-serif; white-space: pre;" transform="translate(154, 40)" font-weight="bold" font-size="20px" font-family="Roboto, sans-serif"><tspan x="-114.52" y="-0" dominant-baseline="ideographic">Single-Qubit </tspan><tspan x="-141.35" y="24" dominant-baseline="ideographic">Quantum Gates</tspan></text></g></g></g><g id="g-root-tx_3_1cz9quj1f4rvnu-fill" data-item-order="0" transform="translate(26, 434)"><g id="tx_3_1cz9quj1f4rvnu-fill-merged" stroke="none" fill="#4f92ff" fill-opacity="1"><g><text style="font: bold 20px Roboto, sans-serif; white-space: pre;" transform="translate(40, 34)" font-weight="bold" font-size="20px" font-family="Roboto, sans-serif"><tspan x="-5.74" y="12" dominant-baseline="ideographic">3</tspan></text></g></g></g><g id="g-root-tx_combines_18jg8q31f4rwg3-fill" data-item-order="0" transform="translate(86, 428.22705078125)"><g id="tx_combines_18jg8q31f4rwg3-fill-merged" stroke="none" fill="#4f92ff" fill-opacity="1"><g><text style="font: 15px Roboto, sans-serif; white-space: pre;" transform="translate(10, 40)" font-size="15px" font-family="Roboto, sans-serif"><tspan x="2" y="-9" dominant-baseline="ideographic">Combines X and Z </tspan><tspan x="2" y="9" dominant-baseline="ideographic">gates with a phase </tspan><tspan x="2" y="27" dominant-baseline="ideographic">factor.</tspan></text></g></g></g><g id="g-root-tx_pauliyga_1lws6cr1f4rtvl-fill" data-item-order="0" transform="translate(290, 446.22705078125)"><g id="tx_pauliyga_1lws6cr1f4rtvl-fill-merged" stroke="none" fill="#ffffff" fill-opacity="1"><g><text style="font: bold 20px Roboto, sans-serif; white-space: pre;" transform="translate(10, 22)" font-weight="bold" font-size="20px" font-family="Roboto, sans-serif"><tspan x="2" y="12" dominant-baseline="ideographic">Pauli-Y Gate</tspan></text></g></g></g><g id="g-root-tx_4_v8m7fv1f4ruv8-fill" data-item-order="0" transform="translate(26, 578)"><g id="tx_4_v8m7fv1f4ruv8-fill-merged" stroke="none" fill="#4f92ff" fill-opacity="1"><g><text style="font: bold 20px Roboto, sans-serif; white-space: pre;" transform="translate(40, 34)" font-weight="bold" font-size="20px" font-family="Roboto, sans-serif"><tspan x="-5.74" y="12" dominant-baseline="ideographic">4</tspan></text></g></g></g><g id="g-root-tx_flipsthe_mcz76z1f4rvnx-fill" data-item-order="0" transform="translate(86, 584.22705078125)"><g id="tx_flipsthe_mcz76z1f4rvnx-fill-merged" stroke="none" fill="#4f92ff" fill-opacity="1"><g><text style="font: 15px Roboto, sans-serif; white-space: pre;" transform="translate(10, 28)" font-size="15px" font-family="Roboto, sans-serif"><tspan x="2" y="0" dominant-baseline="ideographic">Flips the phase of </tspan><tspan x="2" y="18" dominant-baseline="ideographic">the |1⟩ state.</tspan></text></g></g></g><g id="g-root-tx_paulizga_1d1563v1f4ruoa-fill" data-item-order="0" transform="translate(290, 590.22705078125)"><g id="tx_paulizga_1d1563v1f4ruoa-fill-merged" stroke="none" fill="#ffffff" fill-opacity="1"><g><text style="font: bold 20px Roboto, sans-serif; white-space: pre;" transform="translate(10, 22)" font-weight="bold" font-size="20px" font-family="Roboto, sans-serif"><tspan x="2" y="12" dominant-baseline="ideographic">Pauli-Z Gate</tspan></text></g></g></g><g id="g-root-cp_3_g-3_hu1bmz1f4p3pd-stroke" data-item-order="-606739" transform="translate(242, 386.10205078125)"><g id="cp_3_g-3_hu1bmz1f4p3pd-stroke" fill="none" stroke-linecap="round" stroke-linejoin="round" stroke-miterlimit="4" stroke="#ffffff" stroke-width="1" stroke-opacity="1"><g><path d="M 10 130.1237L 41.0002 82.1237L 10.0001 34.1238L 172.5235 34.1234C 186.5934 34.1234 200.0628 28.4219 209.8568 18.3204L 217.924 10L 221.0002 13.1235C 243.9911 36.8427 274.101 52.0414 306.4178 56.6401L 278.7798 85.1457C 250.9046 113.896 212.5686 130.1234 172.5235 130.1234L 10 130.1237Z"></path></g></g></g><g id="g-root-cp_2_g-2_4j7acr1f4p24i-stroke" data-item-order="-606735" transform="translate(242, 266.22705078125)"><g id="cp_2_g-2_4j7acr1f4p24i-stroke" fill="none" stroke-linecap="round" stroke-linejoin="round" stroke-miterlimit="4" stroke="#ffffff" stroke-width="1" stroke-opacity="1"><g><path d="M 368.8556 177.9919L 327.2705 177.9919C 287.2184 177.9919 248.8763 161.7588 221 132.9995L 209.978 121.8081C 200.1837 111.7035 186.7121 106 172.6397 106L 10 105.9999L 41.0002 57.9999L 10.0001 10L 172.6397 10C 212.6919 10 251.034 26.2331 278.9103 54.9924L 289.9323 66.1838C 299.7266 76.2884 313.1981 81.9919 327.2705 81.9919L 367.6819 81.9919L 414.3702 131.0401L 368.8556 177.9919Z"></path></g></g></g><g id="g-root-cp_4_g-4_1uooc2z1f4p2q3-stroke" data-item-order="-606731" transform="translate(242.00003051757812, 387.26611328125)"><g id="cp_4_g-4_1uooc2z1f4p2q3-stroke" fill="none" stroke-linecap="round" stroke-linejoin="round" stroke-miterlimit="4" stroke="#ffffff" stroke-width="1" stroke-opacity="1"><g><path d="M 9.999969 272.959378L 41.000169 224.959378L 10.000069 176.959478L 177.588669 176.959478C 225.485969 176.959478 271.338569 157.547978 304.676569 123.157178L 414.370169 9.999878L 424.533269 20.676678C 445.277969 42.076478 473.207969 54.875778 502.776769 56.726278L 373.605669 189.976278C 322.185869 243.019678 251.464169 272.959478 177.588669 272.959478L 9.999969 272.959378Z"></path></g></g></g><g id="g-root-cp_1_g-1_1q8utyj1f4p3ic-stroke" data-item-order="-606727" transform="translate(242, 122.22705078125)"><g id="cp_1_g-1_1q8utyj1f4p3ic-stroke" fill="none" stroke-linecap="round" stroke-linejoin="round" stroke-miterlimit="4" stroke="#ffffff" stroke-width="1" stroke-opacity="1"><g><path d="M 41.0002 58.0001L 10 10.0001L 177.5887 10C 251.4642 10 322.1859 39.9398 373.6057 92.9832L 493.4622 218.898C 497.8628 223.4377 503.9154 226 510.2379 226L 716.9998 225.5L 748 274L 716.9999 321.4999L 510.2379 322C 477.9372 322 447.0156 308.9094 424.5333 285.7171L 304.6766 159.8023C 271.3386 125.4115 225.486 106 177.5887 106L 10.0001 106L 41.0002 58.0001Z"></path></g></g></g><g id="g-root-tx_pauligat_1cy0sob1f4p1xh-stroke" data-item-order="0" transform="translate(290, 38)"></g><g id="g-root-tx_1_hvwqwb1f4ru9y-stroke" data-item-order="0" transform="translate(26, 146)"></g><g id="g-root-tx_leavesth_909qnf1f4rv2n-stroke" data-item-order="0" transform="translate(86, 140.22705078125)"></g><g id="g-root-tx_identity_4mbnsb1f4ruvb-stroke" data-item-order="0" transform="translate(290, 158.22705078125)"></g><g id="g-root-tx_2_4mqej1f4rwn4-stroke" data-item-order="0" transform="translate(26, 290)"></g><g id="g-root-tx_flipsthe_1qaq97v1f4ru2x-stroke" data-item-order="0" transform="translate(86, 284.22705078125)"></g><g id="g-root-tx_paulixga_6i5nv1f4rvnk-stroke" data-item-order="0" transform="translate(290, 302.22705078125)"></g><g id="g-root-ic_comp_mbq90r1f4p1xi-stroke" data-item-order="0" transform="translate(902, 362.22705078125)"><g id="ic_comp_mbq90r1f4p1xi-stroke" fill="none" stroke-linecap="round" stroke-linejoin="round" stroke-miterlimit="4" stroke="#4f92ff" stroke-width="1" stroke-opacity="1"><g><path d="M 37.898399 17.5C 43.498402 12.7 48.499802 10.416858 50.499802 12.01686C 53.690201 14.609039 49.525002 25.35206 40.9772 36.515999M 37.900002 45.465801C 40.6614 45.465801 42.900002 43.2272 42.900002 40.465797C 42.900002 37.704399 40.6614 35.465797 37.900002 35.465797C 35.138397 35.465797 32.900002 37.704399 32.900002 40.465797C 32.900002 43.2272 35.138397 45.465801 37.900002 45.465801ZM 34.608601 44.2178C 26.24202 53.1576 18.289181 58.311199 15.300079 55.919998C 13.70008 54.52 13.90006 51.119999 15.900061 46.32L 16.494541 44.8442M 35.5 51.5L 46.5 51.5C 48.700001 51.5 50.5 49.700001 50.5 47.5L 50.5 21.5C 50.5 19.299999 48.700001 17.5 46.5 17.5L 37.900002 17.5M 31.9 17.5L 20.5 17.5C 18.299999 17.5 16.5 19.299999 16.5 21.5L 16.5 47.5C 16.5 49.700001 18.299999 51.5 20.5 51.5L 26.869961 51.5M 11.5 20.5L 16.625 20.5M 11.5 29.5L 16.5 29.5M 11.5 38.5L 16.5 38.5M 50.5 29.5L 56.5 29.5M 50.5 38.5L 56.5 38.5M 56.5 47.5L 50.5 47.5M 10 10M 47.5 56.5L 47.5 51.375M 38.5 56.5L 38.5 51.5M 29.5 17.5L 29.5 11.5M 20.5 11.5L 20.5 17.5"></path></g></g></g><g id="g-root-tx_singlequ_9255wr1f4ru32-stroke" data-item-order="0" transform="translate(746, 356.22705078125)"></g><g id="g-root-tx_3_1cz9quj1f4rvnu-stroke" data-item-order="0" transform="translate(26, 434)"></g><g id="g-root-tx_combines_18jg8q31f4rwg3-stroke" data-item-order="0" transform="translate(86, 428.22705078125)"></g><g id="g-root-tx_pauliyga_1lws6cr1f4rtvl-stroke" data-item-order="0" transform="translate(290, 446.22705078125)"></g><g id="g-root-tx_4_v8m7fv1f4ruv8-stroke" data-item-order="0" transform="translate(26, 578)"></g><g id="g-root-tx_flipsthe_mcz76z1f4rvnx-stroke" data-item-order="0" transform="translate(86, 584.22705078125)"></g><g id="g-root-tx_paulizga_1d1563v1f4ruoa-stroke" data-item-order="0" transform="translate(290, 590.22705078125)"></g></g></g><path id="w1q7lctn1fozgnc" d="M65.283 12.757a.35.35 0 0 0 .584.157l5.203-5.141-6.183 3.523.396 1.461zm-2.216-11.7a.35.35 0 0 0-.522.305v3.111l3.276-1.868-2.754-1.548zm3.728 2.105l-4.25 2.421v2.445l6.391-3.644-2.141-1.222zm4.708 3.303a.35.35 0 0 0 0-.609l-1.592-.9-7.365 4.199v1.782a.35.35 0 0 0 .523.305l8.435-4.777z M44.542 2.513c0-.433.355-.783.792-.783s.792.35.792.783-.355.783-.792.783-.792-.35-.792-.783zm59.171 0c0-.433.355-.783.792-.783s.792.35.792.783-.355.783-.792.783-.792-.35-.792-.783zm-85.951 7.636h-1.27v-.487c-.276.201-.864.609-1.881.609-1.202 0-2.274-.794-2.137-2.078.118-1.106 1.153-1.584 1.848-1.727l2.17-.345c0-.539-.29-.956-1.064-1.006s-1.21.305-1.571 1.017l-1.124-.605c1.218-2.631 5.029-1.764 5.029.414v4.207zm-1.27-2.86c.006.396-.062 1.112-.819 1.59-.587.37-1.841.299-1.903-.395-.049-.555.461-.791.906-.898l1.816-.297zm72.662 2.86h-1.27v-.487c-.276.201-.864.609-1.881.609-1.202 0-2.274-.794-2.137-2.078.118-1.106 1.153-1.584 1.848-1.727l2.17-.345c0-.539-.29-.956-1.064-1.006s-1.21.305-1.571 1.017l-1.124-.605c1.218-2.631 5.029-1.764 5.029.414v4.207zm-1.27-2.86c.006.396-.062 1.112-.82 1.59-.587.37-1.841.299-1.903-.395-.049-.555.461-.791.906-.898l1.816-.297zM99.096 10.149H97.85v-8.45h1.246v4.895l2.68-2.559h1.738l-2.633 2.535 2.715 3.578h-1.556l-2.077-2.707-.867.844v1.863zm6.053-6.114h-1.255v6.113h1.255V4.035zm-59.2 0h-1.255v6.113h1.255V4.035zm5.584 6.113V1.697h1.255v2.695c.361-.346 1-.485 1.47-.485 1.452 0 2.477 1.082 2.457 2.448v3.792h-1.27v-3.68c0-.408-.214-1.339-1.315-1.339-.968 0-1.342.756-1.342 1.339v3.681h-1.255zm-4.76-4.894V4.039h.621a.45.45 0 0 0 .45-.45v-.855h1.251v1.305h1.309v1.215h-1.309v3.109c0 .293.105.664.648.664.365 0 .531-.035.736-.07v1.137s-.361.113-.857.113c-1.398 0-1.777-1.051-1.777-1.788V5.254h-1.071zM36.528 4.039h-1.394l2.191 6.106h1.125l1.234-3.918 1.238 3.918h1.129l2.188-6.106h-1.383l-1.359 3.93-1.256-3.93h-1.124l-1.242 3.957-1.348-3.957zM26.212 7.141c-.02 1.566 1.187 3.129 3.223 3.129 1.566 0 2.383-.918 2.734-1.719L31.172 8c-.315.399-.801 1.094-1.738 1.094-1.145 0-1.825-.781-1.891-1.52h4.625c.074-.284.148-.995-.03-1.559-.336-1.064-1.221-2.102-2.839-2.102s-3.088 1.152-3.088 3.227zm1.363-.75h3.348c-.055-.43-.566-1.301-1.623-1.301a1.79 1.79 0 0 0-1.725 1.301zm-8.758.75c.038 1.758 1.277 3.133 3.145 3.133 1.074 0 1.723-.477 1.961-.672v.547h1.242V1.703h-1.258v2.888c-.414-.36-1.062-.68-1.93-.68-1.91 0-3.198 1.473-3.16 3.23zm1.309-.08c0 1.119.723 1.978 1.836 1.978a1.88 1.88 0 0 0 1.94-1.904c0-1.371-1.011-1.99-1.972-1.99s-1.805.798-1.805 1.916zm76.683-.028C96.771 5.275 95.532 3.9 93.664 3.9c-1.074 0-1.723.477-1.961.672v-.547h-1.242v8.22h1.258V9.583c.414.36 1.063.68 1.93.68 1.91 0 3.198-1.473 3.16-3.23zm-1.309.08c0-1.119-.723-1.978-1.836-1.978a1.88 1.88 0 0 0-1.94 1.904c0 1.371 1.011 1.99 1.972 1.99S95.5 8.231 95.5 7.113zM106.441 10.173V4.036h1.254v.382c.361-.346 1-.485 1.47-.485 1.452 0 2.477 1.082 2.457 2.448v3.792h-1.27V6.492c0-.408-.214-1.339-1.315-1.339-.969 0-1.342.756-1.342 1.339v3.681h-1.254zm-30.383-.021V1.824h1.084l4.215 5.777V1.824h1.32v8.328h-1.094l-4.207-5.796v5.796h-1.319zM5.24 10.149H4V2.377h1.014l2.664 3.597 2.654-3.592h1.03v7.766h-1.256V4.762L7.678 8.068 5.24 4.742v5.407z" transform="translate(884, 686.22705078125)" fill="#80808088" stroke="none"></path></svg>