<?xml version="1.0" encoding="utf-8" standalone="yes"?>
<!DOCTYPE svg PUBLIC "-//W3C//DTD SVG 1.1//EN" "http://www.w3.org/Graphics/SVG/1.1/DTD/svg11.dtd">
<svg style="fill:none;stroke:none;fill-rule:evenodd;clip-rule:evenodd;stroke-linecap:round;stroke-linejoin:round;stroke-miterlimit:1.5;" version="1.1" xmlns="http://www.w3.org/2000/svg" xmlns:xlink="http://www.w3.org/1999/xlink" width="875" height="612" viewBox="0 0 875 612"><style class="text-font-style fontImports" data-font-family="Roboto">@import url(https://fonts.googleapis.com/css2?family=Roboto:wght@400;700&amp;amp;display=block);</style><g id="items" style="isolation: isolate"><g id="blend" style="mix-blend-mode: normal"><g id="g-root-cp_2_g-2_18gy9ah1fesw7a-fill" data-item-order="-426722" transform="translate(242, 266.0980224609375)"><g id="cp_2_g-2_18gy9ah1fesw7a-fill-merged" stroke="none" fill="#4f92ff" fill-opacity="1"><g><path d="M41 58L10 106 H241.074L287.598 58.015L241.057 10 H10L41 58"></path></g></g></g><g id="g-root-cp_3_g-3_18gy9ah1fesw7b-fill" data-item-order="-426718" transform="translate(242.00003051757812, 314.1109619140625)"><g id="cp_3_g-3_18gy9ah1fesw7b-fill-merged" stroke="none" fill="#4f92ff" fill-opacity="1"><g><path d="M41 153.985L10 201.985 H172.523C212.569 201.985 250.905 185.757 278.78 157.007L359.466 73.788C369.26 63.686 382.73 57.985 396.799 57.985C356.717 57.985 318.375 41.752 290.498 12.992L287.598 10L209.857 90.182C200.063 100.283 186.593 105.985 172.523 105.985 H10L41 153.985"></path></g></g></g><g id="g-root-cp_1_g-1_141r8951festts-fill" data-item-order="-426714" transform="translate(242.00003051757812, 122.22705078125)"><g id="cp_1_g-1_141r8951festts-fill-merged" stroke="none" fill="#4f92ff" fill-opacity="1"><g><path d="M396.893 250C356.841 250 318.499 233.767 290.623 205.008L209.978 121.808C200.184 111.703 186.712 106 172.64 106 H10L41 58L10 10 H172.64C212.692 10 251.034 26.233 278.91 54.992L359.555 138.192C369.349 148.296 382.821 154 396.893 154L578 153.87L609 201.87L578 249.87C521.733 249.87 453.25 250 396.893 250"></path></g></g></g><g id="g-root-tx_quantums_141r8951festtt-fill" data-item-order="0" transform="translate(289.5, 38)"><g id="tx_quantums_141r8951festtt-fill-merged" stroke="none" fill="#4f92ff" fill-opacity="1"><g><text style="font: bold 25px Roboto, sans-serif; white-space: pre;" transform="translate(148, 28)" font-weight="bold" font-size="25px" font-family="Roboto, sans-serif"><tspan x="-132.95" y="15" dominant-baseline="ideographic">Quantum Superposition</tspan></text></g></g></g><g id="g-root-tx_1_qqapvt1fesveq-fill" data-item-order="0" transform="translate(44, 158)"><g id="tx_1_qqapvt1fesveq-fill-merged" stroke="none" fill="#4f92ff" fill-opacity="1"><g><text style="font: bold 20px Roboto, sans-serif; white-space: pre;" transform="translate(22, 22)" font-weight="bold" font-size="20px" font-family="Roboto, sans-serif"><tspan x="-5.74" y="12" dominant-baseline="ideographic">1</tspan></text></g></g></g><g id="g-root-tx_0and1are_dfgoll1festtv-fill" data-item-order="0" transform="translate(86, 140.22705078125)"><g id="tx_0and1are_dfgoll1festtv-fill-merged" stroke="none" fill="#4f92ff" fill-opacity="1"><g><text style="font: 15px Roboto, sans-serif; white-space: pre;" transform="translate(10, 40)" font-size="15px" font-family="Roboto, sans-serif"><tspan x="2" y="-9" dominant-baseline="ideographic">|0⟩ and |1⟩ are </tspan><tspan x="2" y="9" dominant-baseline="ideographic">fundamental qubit </tspan><tspan x="2" y="27" dominant-baseline="ideographic">states.</tspan></text></g></g></g><g id="g-root-tx_basissta_90w4nd1feua6e-fill" data-item-order="0" transform="translate(290, 158.22705078125)"><g id="tx_basissta_90w4nd1feua6e-fill-merged" stroke="none" fill="#ffffff" fill-opacity="1"><g><text style="font: bold 20px Roboto, sans-serif; white-space: pre;" transform="translate(10, 22)" font-weight="bold" font-size="20px" font-family="Roboto, sans-serif"><tspan x="2" y="12" dominant-baseline="ideographic">Basis States</tspan></text></g></g></g><g id="g-root-ic_fitb_18itojt1fesv7s-fill" data-item-order="0" transform="translate(758, 290.22705078125)"></g><g id="g-root-tx_2_4jtocp1fesumk-fill" data-item-order="0" transform="translate(26, 290)"><g id="tx_2_4jtocp1fesumk-fill-merged" stroke="none" fill="#4f92ff" fill-opacity="1"><g><text style="font: bold 20px Roboto, sans-serif; white-space: pre;" transform="translate(40, 34)" font-weight="bold" font-size="20px" font-family="Roboto, sans-serif"><tspan x="-5.74" y="12" dominant-baseline="ideographic">2</tspan></text></g></g></g><g id="g-root-tx_anddeter_1q9h7yh1fesw0d-fill" data-item-order="0" transform="translate(86, 296.22705078125)"><g id="tx_anddeter_1q9h7yh1fesw0d-fill-merged" stroke="none" fill="#4f92ff" fill-opacity="1"><g><text style="font: 15px Roboto, sans-serif; white-space: pre;" transform="translate(10, 28)" font-size="15px" font-family="Roboto, sans-serif"><tspan x="2" y="0" dominant-baseline="ideographic">α and β determine </tspan><tspan x="2" y="18" dominant-baseline="ideographic">state probabilities.</tspan></text></g></g></g><g id="g-root-tx_amplitud_594eh1feuaz3-fill" data-item-order="0" transform="translate(290, 302.22705078125)"><g id="tx_amplitud_594eh1feuaz3-fill-merged" stroke="none" fill="#ffffff" fill-opacity="1"><g><text style="font: bold 20px Roboto, sans-serif; white-space: pre;" transform="translate(10, 22)" font-weight="bold" font-size="20px" font-family="Roboto, sans-serif"><tspan x="2" y="12" dominant-baseline="ideographic">Amplitudes</tspan></text></g></g></g><g id="g-root-tx_qubitsta_mccn0p1feu8lh-fill" data-item-order="0" transform="translate(638, 302.22705078125)"><g id="tx_qubitsta_mccn0p1feu8lh-fill-merged" stroke="none" fill="#4f92ff" fill-opacity="1"><g><text style="font: bold 20px Roboto, sans-serif; white-space: pre;" transform="translate(118, 22)" font-weight="bold" font-size="20px" font-family="Roboto, sans-serif"><tspan x="-102.63" y="12" dominant-baseline="ideographic">Qubit State</tspan></text></g></g></g><g id="g-root-tx_3_1ltnpu11feswsm-fill" data-item-order="0" transform="translate(26, 434)"><g id="tx_3_1ltnpu11feswsm-fill-merged" stroke="none" fill="#4f92ff" fill-opacity="1"><g><text style="font: bold 20px Roboto, sans-serif; white-space: pre;" transform="translate(40, 34)" font-weight="bold" font-size="20px" font-family="Roboto, sans-serif"><tspan x="-5.74" y="12" dominant-baseline="ideographic">3</tspan></text></g></g></g><g id="g-root-tx_221ensur_1cyn6o91fesufj-fill" data-item-order="0" transform="translate(86, 428.22705078125)"><g id="tx_221ensur_1cyn6o91fesufj-fill-merged" stroke="none" fill="#4f92ff" fill-opacity="1"><g><text style="font: 15px Roboto, sans-serif; white-space: pre;" transform="translate(10, 40)" font-size="15px" font-family="Roboto, sans-serif"><tspan x="2" y="-9" dominant-baseline="ideographic">|α|^2 + |β|^2 = 1 </tspan><tspan x="2" y="9" dominant-baseline="ideographic">ensures valid </tspan><tspan x="2" y="27" dominant-baseline="ideographic">probabilities.</tspan></text></g></g></g><g id="g-root-tx_normaliz_1qbcn7t1feu96o-fill" data-item-order="0" transform="translate(290, 446.22705078125)"><g id="tx_normaliz_1qbcn7t1feu96o-fill-merged" stroke="none" fill="#ffffff" fill-opacity="1"><g><text style="font: bold 20px Roboto, sans-serif; white-space: pre;" transform="translate(10, 22)" font-weight="bold" font-size="20px" font-family="Roboto, sans-serif"><tspan x="2" y="12" dominant-baseline="ideographic">Normalization</tspan></text></g></g></g><g id="g-root-cp_2_g-2_18gy9ah1fesw7a-stroke" data-item-order="-426722" transform="translate(242, 266.0980224609375)"><g id="cp_2_g-2_18gy9ah1fesw7a-stroke" fill="none" stroke-linecap="round" stroke-linejoin="round" stroke-miterlimit="4" stroke="#ffffff" stroke-width="1" stroke-opacity="1"><g><path d="M 41.0002 58L 10 106L 241.0738 106L 287.598 58.0153L 241.057 10L 10.0001 10.0001L 41.0002 58Z"></path></g></g></g><g id="g-root-cp_3_g-3_18gy9ah1fesw7b-stroke" data-item-order="-426718" transform="translate(242.00003051757812, 314.1109619140625)"><g id="cp_3_g-3_18gy9ah1fesw7b-stroke" fill="none" stroke-linecap="round" stroke-linejoin="round" stroke-miterlimit="4" stroke="#ffffff" stroke-width="1" stroke-opacity="1"><g><path d="M 41.000169 153.9849L 9.999969 201.9849L 172.523469 201.9847C 212.568569 201.9847 250.904569 185.7573 278.779769 157.007L 359.466269 73.7876C 369.260269 63.6862 382.729569 57.9847 396.799469 57.9847L 396.769069 57.9847C 356.716869 57.9847 318.374769 41.7516 290.498469 12.9923L 287.598069 10L 209.856769 90.1817C 200.062769 100.2832 186.593369 105.9847 172.523469 105.9847L 10.000069 105.9851L 41.000169 153.9849Z"></path></g></g></g><g id="g-root-cp_1_g-1_141r8951festts-stroke" data-item-order="-426714" transform="translate(242.00003051757812, 122.22705078125)"><g id="cp_1_g-1_141r8951festts-stroke" fill="none" stroke-linecap="round" stroke-linejoin="round" stroke-miterlimit="4" stroke="#ffffff" stroke-width="1" stroke-opacity="1"><g><path d="M 396.893469 250C 356.841269 250 318.499169 233.7669 290.622869 205.0076L 209.977969 121.8081C 200.183669 111.7035 186.712069 106 172.639669 106L 9.999969 105.9999L 41.000169 57.9999L 10.000069 10L 172.639669 10C 212.691869 10 251.033969 26.2331 278.910269 54.9924L 359.555169 138.1919C 369.349469 148.2965 382.820969 154 396.893469 154L 578.000069 153.8702L 609.000169 201.8701L 577.999969 249.8701C 521.733469 249.8701 453.250369 250 396.893469 250Z"></path></g></g></g><g id="g-root-tx_quantums_141r8951festtt-stroke" data-item-order="0" transform="translate(289.5, 38)"></g><g id="g-root-tx_1_qqapvt1fesveq-stroke" data-item-order="0" transform="translate(44, 158)"></g><g id="g-root-tx_0and1are_dfgoll1festtv-stroke" data-item-order="0" transform="translate(86, 140.22705078125)"></g><g id="g-root-tx_basissta_90w4nd1feua6e-stroke" data-item-order="0" transform="translate(290, 158.22705078125)"></g><g id="g-root-ic_fitb_18itojt1fesv7s-stroke" data-item-order="0" transform="translate(758, 290.22705078125)"><g id="ic_fitb_18itojt1fesv7s-stroke" fill="none" stroke-linecap="round" stroke-linejoin="round" stroke-miterlimit="4" stroke="#4f92ff" stroke-width="1" stroke-opacity="1"><g><path d="M 47.999989 33.999992C 47.999989 36.209129 49.790848 37.999992 51.999989 37.999992C 54.209129 37.999992 55.999985 36.209129 55.999985 33.999992C 55.999985 31.790855 54.209129 29.999994 51.999989 29.999994C 49.790848 29.999994 47.999989 31.790855 47.999989 33.999992ZM 27.999994 33.999992C 27.999994 35.656845 29.343142 36.999992 30.999994 36.999992C 32.656849 36.999992 33.999992 35.656845 33.999992 33.999992C 33.999992 32.34314 32.656849 30.999994 30.999994 30.999994C 29.343142 30.999994 27.999994 32.34314 27.999994 33.999992ZM 19.999996 33.999992C 19.999996 35.104565 20.895428 35.999992 21.999996 35.999992C 23.104565 35.999992 23.999996 35.104565 23.999996 33.999992C 23.999996 32.895424 23.104565 31.999994 21.999996 31.999994C 20.895428 31.999994 19.999996 32.895424 19.999996 33.999992ZM 11.999999 33.999992C 11.999999 35.104565 12.89543 35.999992 13.999999 35.999992C 15.104568 35.999992 15.999998 35.104565 15.999998 33.999992C 15.999998 32.895424 15.104568 31.999994 13.999999 31.999994C 12.89543 31.999994 11.999999 32.895424 11.999999 33.999992ZM 27.999994 43.999989C 27.999994 45.656845 29.343142 46.999989 30.999994 46.999989C 32.656849 46.999989 33.999992 45.656845 33.999992 43.999989C 33.999992 42.343136 32.656849 40.999992 30.999994 40.999992C 29.343142 40.999992 27.999994 42.343136 27.999994 43.999989ZM 19.999996 43.999989C 19.999996 45.104557 20.895428 45.999989 21.999996 45.999989C 23.104565 45.999989 23.999996 45.104557 23.999996 43.999989C 23.999996 42.89542 23.104565 41.999992 21.999996 41.999992C 20.895428 41.999992 19.999996 42.89542 19.999996 43.999989ZM 27.999994 23.999996C 27.999994 25.656851 29.343142 26.999994 30.999994 26.999994C 32.656849 26.999994 33.999992 25.656851 33.999992 23.999996C 33.999992 22.343143 32.656849 20.999996 30.999994 20.999996C 29.343142 20.999996 27.999994 22.343143 27.999994 23.999996ZM 37.999992 33.999992C 37.999992 35.656845 39.34314 36.999992 40.999992 36.999992C 42.656845 36.999992 43.999989 35.656845 43.999989 33.999992C 43.999989 32.34314 42.656845 30.999994 40.999992 30.999994C 39.34314 30.999994 37.999992 32.34314 37.999992 33.999992ZM 37.999992 43.999989C 37.999992 45.656845 39.34314 46.999989 40.999992 46.999989C 42.656845 46.999989 43.999989 45.656845 43.999989 43.999989C 43.999989 42.343136 42.656845 40.999992 40.999992 40.999992C 39.34314 40.999992 37.999992 42.343136 37.999992 43.999989ZM 37.999992 23.999996C 37.999992 25.656851 39.34314 26.999994 40.999992 26.999994C 42.656845 26.999994 43.999989 25.656851 43.999989 23.999996C 43.999989 22.343143 42.656845 20.999996 40.999992 20.999996C 39.34314 20.999996 37.999992 22.343143 37.999992 23.999996ZM 27.999994 13.999999C 27.999994 15.656853 29.343142 16.999998 30.999994 16.999998C 32.656849 16.999998 33.999992 15.656853 33.999992 13.999999C 33.999992 12.343145 32.656849 11 30.999994 11C 29.343142 11 27.999994 12.343145 27.999994 13.999999ZM 27.999994 53.999989C 27.999994 55.656841 29.343142 56.999985 30.999994 56.999985C 32.656849 56.999985 33.999992 55.656841 33.999992 53.999989C 33.999992 52.343136 32.656849 50.999989 30.999994 50.999989C 29.343142 50.999989 27.999994 52.343136 27.999994 53.999989ZM 19.999996 23.999996C 19.999996 25.104565 20.895428 25.999996 21.999996 25.999996C 23.104565 25.999996 23.999996 25.104565 23.999996 23.999996C 23.999996 22.895426 23.104565 21.999996 21.999996 21.999996C 20.895428 21.999996 19.999996 22.895426 19.999996 23.999996Z"></path></g></g></g><g id="g-root-tx_2_4jtocp1fesumk-stroke" data-item-order="0" transform="translate(26, 290)"></g><g id="g-root-tx_anddeter_1q9h7yh1fesw0d-stroke" data-item-order="0" transform="translate(86, 296.22705078125)"></g><g id="g-root-tx_amplitud_594eh1feuaz3-stroke" data-item-order="0" transform="translate(290, 302.22705078125)"></g><g id="g-root-tx_qubitsta_mccn0p1feu8lh-stroke" data-item-order="0" transform="translate(638, 302.22705078125)"></g><g id="g-root-tx_3_1ltnpu11feswsm-stroke" data-item-order="0" transform="translate(26, 434)"></g><g id="g-root-tx_221ensur_1cyn6o91fesufj-stroke" data-item-order="0" transform="translate(86, 428.22705078125)"></g><g id="g-root-tx_normaliz_1qbcn7t1feu96o-stroke" data-item-order="0" transform="translate(290, 446.22705078125)"></g></g></g><path id="wzlwuix1gspfd5" d="M65.283 12.757a.35.35 0 0 0 .584.157l5.203-5.141-6.183 3.523.396 1.461zm-2.216-11.7a.35.35 0 0 0-.522.305v3.111l3.276-1.868-2.754-1.548zm3.728 2.105l-4.25 2.421v2.445l6.391-3.644-2.141-1.222zm4.708 3.303a.35.35 0 0 0 0-.609l-1.592-.9-7.365 4.199v1.782a.35.35 0 0 0 .523.305l8.435-4.777z M44.542 2.513c0-.433.355-.783.792-.783s.792.35.792.783-.355.783-.792.783-.792-.35-.792-.783zm59.171 0c0-.433.355-.783.792-.783s.792.35.792.783-.355.783-.792.783-.792-.35-.792-.783zm-85.951 7.636h-1.27v-.487c-.276.201-.864.609-1.881.609-1.202 0-2.274-.794-2.137-2.078.118-1.106 1.153-1.584 1.848-1.727l2.17-.345c0-.539-.29-.956-1.064-1.006s-1.21.305-1.571 1.017l-1.124-.605c1.218-2.631 5.029-1.764 5.029.414v4.207zm-1.27-2.86c.006.396-.062 1.112-.819 1.59-.587.37-1.841.299-1.903-.395-.049-.555.461-.791.906-.898l1.816-.297zm72.662 2.86h-1.27v-.487c-.276.201-.864.609-1.881.609-1.202 0-2.274-.794-2.137-2.078.118-1.106 1.153-1.584 1.848-1.727l2.17-.345c0-.539-.29-.956-1.064-1.006s-1.21.305-1.571 1.017l-1.124-.605c1.218-2.631 5.029-1.764 5.029.414v4.207zm-1.27-2.86c.006.396-.062 1.112-.82 1.59-.587.37-1.841.299-1.903-.395-.049-.555.461-.791.906-.898l1.816-.297zM99.096 10.149H97.85v-8.45h1.246v4.895l2.68-2.559h1.738l-2.633 2.535 2.715 3.578h-1.556l-2.077-2.707-.867.844v1.863zm6.053-6.114h-1.255v6.113h1.255V4.035zm-59.2 0h-1.255v6.113h1.255V4.035zm5.584 6.113V1.697h1.255v2.695c.361-.346 1-.485 1.47-.485 1.452 0 2.477 1.082 2.457 2.448v3.792h-1.27v-3.68c0-.408-.214-1.339-1.315-1.339-.968 0-1.342.756-1.342 1.339v3.681h-1.255zm-4.76-4.894V4.039h.621a.45.45 0 0 0 .45-.45v-.855h1.251v1.305h1.309v1.215h-1.309v3.109c0 .293.105.664.648.664.365 0 .531-.035.736-.07v1.137s-.361.113-.857.113c-1.398 0-1.777-1.051-1.777-1.788V5.254h-1.071zM36.528 4.039h-1.394l2.191 6.106h1.125l1.234-3.918 1.238 3.918h1.129l2.188-6.106h-1.383l-1.359 3.93-1.256-3.93h-1.124l-1.242 3.957-1.348-3.957zM26.212 7.141c-.02 1.566 1.187 3.129 3.223 3.129 1.566 0 2.383-.918 2.734-1.719L31.172 8c-.315.399-.801 1.094-1.738 1.094-1.145 0-1.825-.781-1.891-1.52h4.625c.074-.284.148-.995-.03-1.559-.336-1.064-1.221-2.102-2.839-2.102s-3.088 1.152-3.088 3.227zm1.363-.75h3.348c-.055-.43-.566-1.301-1.623-1.301a1.79 1.79 0 0 0-1.725 1.301zm-8.758.75c.038 1.758 1.277 3.133 3.145 3.133 1.074 0 1.723-.477 1.961-.672v.547h1.242V1.703h-1.258v2.888c-.414-.36-1.062-.68-1.93-.68-1.91 0-3.198 1.473-3.16 3.23zm1.309-.08c0 1.119.723 1.978 1.836 1.978a1.88 1.88 0 0 0 1.94-1.904c0-1.371-1.011-1.99-1.972-1.99s-1.805.798-1.805 1.916zm76.683-.028C96.771 5.275 95.532 3.9 93.664 3.9c-1.074 0-1.723.477-1.961.672v-.547h-1.242v8.22h1.258V9.583c.414.36 1.063.68 1.93.68 1.91 0 3.198-1.473 3.16-3.23zm-1.309.08c0-1.119-.723-1.978-1.836-1.978a1.88 1.88 0 0 0-1.94 1.904c0 1.371 1.011 1.99 1.972 1.99S95.5 8.231 95.5 7.113zM106.441 10.173V4.036h1.254v.382c.361-.346 1-.485 1.47-.485 1.452 0 2.477 1.082 2.457 2.448v3.792h-1.27V6.492c0-.408-.214-1.339-1.315-1.339-.969 0-1.342.756-1.342 1.339v3.681h-1.254zm-30.383-.021V1.824h1.084l4.215 5.777V1.824h1.32v8.328h-1.094l-4.207-5.796v5.796h-1.319zM5.24 10.149H4V2.377h1.014l2.664 3.597 2.654-3.592h1.03v7.766h-1.256V4.762L7.678 8.068 5.24 4.742v5.407z" transform="translate(739, 578)" fill="#80808088" stroke="none"></path></svg>