<?xml version="1.0" encoding="utf-8" standalone="yes"?>
<!DOCTYPE svg PUBLIC "-//W3C//DTD SVG 1.1//EN" "http://www.w3.org/Graphics/SVG/1.1/DTD/svg11.dtd">
<svg style="fill:none;stroke:none;fill-rule:evenodd;clip-rule:evenodd;stroke-linecap:round;stroke-linejoin:round;stroke-miterlimit:1.5;" version="1.1" xmlns="http://www.w3.org/2000/svg" xmlns:xlink="http://www.w3.org/1999/xlink" width="576" height="372" viewBox="0 0 576 372"><style class="text-font-style fontImports" data-font-family="Roboto">@import url(https://fonts.googleapis.com/css2?family=Roboto:wght@400;700&amp;amp;display=block);</style><g id="items" style="isolation: isolate"><g id="blend" style="mix-blend-mode: normal"><g id="g-root-cr_2_cr-2_90vv4r1h2xgxt-fill" data-item-order="-46650" transform="translate(385.99993896484375, 134)"><g id="cr_2_cr-2_90vv4r1h2xgxt-fill-merged" stroke="none" fill="#e8f9ff" fill-opacity="1"><g><path d="M10 64C10 93.823 34.177 118 64 118C93.823 118 118 93.823 118 64C118 34.177 93.823 10 64 10C34.177 10 10 34.177 10 64"></path></g></g></g><g id="g-root-cr_1_cr-1_90vv4r1h2xgxu-fill" data-item-order="-46646" transform="translate(61.999969482421875, 134)"><g id="cr_1_cr-1_90vv4r1h2xgxu-fill-merged" stroke="none" fill="#ffeceb" fill-opacity="1"><g><path d="M10 64C10 93.823 34.177 118 64 118C93.823 118 118 93.823 118 64C118 34.177 93.823 10 64 10C34.177 10 10 34.177 10 64"></path></g></g></g><g id="g-root-tx_howdoest_1q6z5971h2gn4e-fill" data-item-order="0" transform="translate(14, 38)"><g id="tx_howdoest_1q6z5971h2gn4e-fill-merged" stroke="none" fill="#484848" fill-opacity="1"><g><text style="font: bold 25px Roboto, sans-serif; white-space: pre;" transform="translate(274, 40)" font-weight="bold" font-size="25px" font-family="Roboto, sans-serif"><tspan x="-259.4" y="0" dominant-baseline="ideographic">How does the Hadamard gate transform qubit </tspan><tspan x="-44.08" y="30" dominant-baseline="ideographic">states?</tspan></text></g></g></g><g id="g-root-ic_spac_diksij1h2xf5z-fill" data-item-order="0" transform="translate(80, 152)"></g><g id="g-root-ic_ligh_hss40r1h2f6rt-fill" data-item-order="0" transform="translate(242, 152)"></g><g id="g-root-ic_3_1lqj61n1h2drt0-fill" data-item-order="0" transform="translate(404, 152)"></g><g id="g-root-tx__hxrtjv1h2xhji-fill" data-item-order="0" transform="translate(109.99996948242188, 254)"><g id="tx__hxrtjv1h2xhji-fill-merged" stroke="none" fill="#e55753" fill-opacity="1"><g><text style="font: 20px Roboto, sans-serif; white-space: pre;" transform="translate(16, 10)" font-size="20px" font-family="Roboto, sans-serif"></text></g></g></g><g id="g-root-tx__v98bx71h2xfyk-fill" data-item-order="0" transform="translate(434, 254)"><g id="tx__v98bx71h2xfyk-fill-merged" stroke="none" fill="#1eabda" fill-opacity="1"><g><text style="font: 20px Roboto, sans-serif; white-space: pre;" transform="translate(16, 10)" font-size="20px" font-family="Roboto, sans-serif"></text></g></g></g><g id="g-root-tx_h0_qtetsr1h2xgqt-fill" data-item-order="0" transform="translate(97.99996948242188, 290)"><g id="tx_h0_qtetsr1h2xgqt-fill-merged" stroke="none" fill="#484848" fill-opacity="1"><g><text style="font: 15px Roboto, sans-serif; white-space: pre;" transform="translate(28, 22)" font-size="15px" font-family="Roboto, sans-serif"><tspan x="-14.09" y="9" dominant-baseline="ideographic">H|0⟩</tspan></text></g></g></g><g id="g-root-tx_h1_58uvv1h2xhqj-fill" data-item-order="0" transform="translate(422, 290)"><g id="tx_h1_58uvv1h2xhqj-fill-merged" stroke="none" fill="#484848" fill-opacity="1"><g><text style="font: 15px Roboto, sans-serif; white-space: pre;" transform="translate(28, 22)" font-size="15px" font-family="Roboto, sans-serif"><tspan x="-14.09" y="9" dominant-baseline="ideographic">H|1⟩</tspan></text></g></g></g><g id="g-root-cr_2_cr-2_90vv4r1h2xgxt-stroke" data-item-order="-46650" transform="translate(385.99993896484375, 134)"><g id="cr_2_cr-2_90vv4r1h2xgxt-stroke" fill="none" stroke-linecap="round" stroke-linejoin="round" stroke-miterlimit="4" stroke="#1eabda" stroke-width="2" stroke-opacity="1"><g><path d="M 10 64C 10 93.823377 34.176624 118 64 118C 93.823377 118 118 93.823377 118 64C 118 34.176624 93.823377 10 64 10C 34.176624 10 10 34.176624 10 64Z"></path></g></g></g><g id="g-root-cr_1_cr-1_90vv4r1h2xgxu-stroke" data-item-order="-46646" transform="translate(61.999969482421875, 134)"><g id="cr_1_cr-1_90vv4r1h2xgxu-stroke" fill="none" stroke-linecap="round" stroke-linejoin="round" stroke-miterlimit="4" stroke="#e55753" stroke-width="2" stroke-opacity="1"><g><path d="M 10 64C 10 93.823377 34.176624 118 64 118C 93.823377 118 118 93.823377 118 64C 118 34.176624 93.823377 10 64 10C 34.176624 10 10 34.176624 10 64Z"></path></g></g></g><g id="g-root-tx_howdoest_1q6z5971h2gn4e-stroke" data-item-order="0" transform="translate(14, 38)"></g><g id="g-root-ic_spac_diksij1h2xf5z-stroke" data-item-order="0" transform="translate(80, 152)"><g id="ic_spac_diksij1h2xf5z-stroke" fill="none" stroke-linecap="round" stroke-linejoin="round" stroke-miterlimit="4" stroke="#e55753" stroke-width="2" stroke-opacity="1"><g><path d="M 20.5 11.494L 20.5 80.493996M 11.5 20.493999L 20.5 11.494L 29.5 20.493999M 11.5 71.493996L 20.5 80.493996L 29.5 71.493996M 80.5 11.494L 50.5 11.494M 80.5 23.493999L 41.5 23.493999M 80.5 35.493999L 41.5 35.493999M 80.5 53.493999L 50.5 53.493999M 80.5 65.493996L 41.5 65.493996M 80.5 77.493996L 41.5 77.493996"></path></g></g></g><g id="g-root-ic_ligh_hss40r1h2f6rt-stroke" data-item-order="0" transform="translate(242, 152)"><g id="ic_ligh_hss40r1h2f6rt-stroke" fill="none" stroke-linecap="round" stroke-linejoin="round" stroke-miterlimit="4" stroke="#484848" stroke-width="2" stroke-opacity="1"><g><path d="M 43.7155 60.25L 41.78965 75.448456C 41.6017 76.932404 43.444153 77.732651 44.395 76.57795C 47.01955 73.3909 50.811699 68.769402 54.856899 63.833954M 69.831848 45.546398C 71.379852 43.654751 72.706451 42.033249 73.705299 40.812103C 74.506447 39.832748 73.809097 38.36335 72.543854 38.36335L 69.158348 38.36335M 25.079649 52.911999L 19.49548 52.911999C 18.223511 52.911999 17.52829 51.428951 18.342926 50.452148L 22.779266 45.132549M 35.112999 30.346449C 39.87685 24.636566 44.504349 19.091724 47.564949 15.428576C 48.525852 14.278646 50.384201 15.095304 50.190849 16.581249L 48.589302 28.888599M 40.897453 54.801849L 46.692249 35.308601C 46.978149 34.346951 46.257702 33.3811 45.254501 33.3811L 42.439301 33.3811C 41.771049 33.3811 41.18335 33.823151 40.9981 34.465149L 36.3946 50.412849C 36.289299 50.77795 35.77 50.772701 35.67205 50.405647L 31.4233 34.494099C 31.2481 33.8377 30.6535 33.3811 29.97415 33.3811L 26.994999 33.3811C 25.99645 33.3811 25.276749 34.338249 25.553949 35.297501L 31.17985 54.7687C 31.7362 56.694099 33.498852 58.019501 35.503002 58.019501L 36.584049 58.019501C 38.575451 58.019501 40.329998 56.710602 40.897453 54.801849ZM 55.995251 52.8979C 54.671501 52.8979 53.315948 52.649349 52.157799 52.296249C 51.212952 52.008099 50.137451 52.530552 49.935249 53.497299L 49.494553 55.60405C 49.356548 56.263451 49.675148 56.93755 50.312199 57.156551C 51.677353 57.6259 53.664398 58.020248 55.7164 58.020248C 62.197296 58.020248 65.500153 54.6562 65.500153 50.398453C 65.500153 47.324951 63.797348 44.9491 59.738503 43.285149C 56.776901 42.0355 55.727348 41.490551 55.727348 40.328049C 55.727348 39.259899 56.758598 38.467899 58.703651 38.467899C 59.83075 38.467899 60.802898 38.636799 61.608551 38.862099C 62.52655 39.118752 63.545498 38.638149 63.765404 37.710701L 64.243744 35.694248C 64.408752 34.998253 64.061646 34.273598 63.381096 34.053402C 62.162048 33.658901 60.618248 33.381851 58.743996 33.381851C 52.776852 33.381851 49.470402 36.687851 49.470402 40.843899C 49.470402 43.873749 51.5695 46.227848 55.602547 47.924351C 58.15675 48.945248 59.221001 49.66465 59.221001 50.874397C 59.221001 52.084152 58.112801 52.8979 55.995251 52.8979Z"></path></g></g></g><g id="g-root-ic_3_1lqj61n1h2drt0-stroke" data-item-order="0" transform="translate(404, 152)"><g id="ic_3_1lqj61n1h2drt0-stroke" fill="none" stroke-linecap="round" stroke-linejoin="round" stroke-miterlimit="4" stroke="#1eabda" stroke-width="2" stroke-opacity="1"><g><path d="M 35.5 56.496998L 11.5 80.497002M 26.5 80.497002L 11.5 80.497002L 11.5 65.497002M 56.5 35.496998L 80.5 11.497M 65.5 11.497L 80.5 11.497L 80.5 26.497"></path></g></g></g><g id="g-root-tx__hxrtjv1h2xhji-stroke" data-item-order="0" transform="translate(109.99996948242188, 254)"></g><g id="g-root-tx__v98bx71h2xfyk-stroke" data-item-order="0" transform="translate(434, 254)"></g><g id="g-root-tx_h0_qtetsr1h2xgqt-stroke" data-item-order="0" transform="translate(97.99996948242188, 290)"></g><g id="g-root-tx_h1_58uvv1h2xhqj-stroke" data-item-order="0" transform="translate(422, 290)"></g></g></g><path id="w4hyovf1dh2r5u" d="M65.283 12.757a.35.35 0 0 0 .584.157l5.203-5.141-6.183 3.523.396 1.461zm-2.216-11.7a.35.35 0 0 0-.522.305v3.111l3.276-1.868-2.754-1.548zm3.728 2.105l-4.25 2.421v2.445l6.391-3.644-2.141-1.222zm4.708 3.303a.35.35 0 0 0 0-.609l-1.592-.9-7.365 4.199v1.782a.35.35 0 0 0 .523.305l8.435-4.777z M44.542 2.513c0-.433.355-.783.792-.783s.792.35.792.783-.355.783-.792.783-.792-.35-.792-.783zm59.171 0c0-.433.355-.783.792-.783s.792.35.792.783-.355.783-.792.783-.792-.35-.792-.783zm-85.951 7.636h-1.27v-.487c-.276.201-.864.609-1.881.609-1.202 0-2.274-.794-2.137-2.078.118-1.106 1.153-1.584 1.848-1.727l2.17-.345c0-.539-.29-.956-1.064-1.006s-1.21.305-1.571 1.017l-1.124-.605c1.218-2.631 5.029-1.764 5.029.414v4.207zm-1.27-2.86c.006.396-.062 1.112-.819 1.59-.587.37-1.841.299-1.903-.395-.049-.555.461-.791.906-.898l1.816-.297zm72.662 2.86h-1.27v-.487c-.276.201-.864.609-1.881.609-1.202 0-2.274-.794-2.137-2.078.118-1.106 1.153-1.584 1.848-1.727l2.17-.345c0-.539-.29-.956-1.064-1.006s-1.21.305-1.571 1.017l-1.124-.605c1.218-2.631 5.029-1.764 5.029.414v4.207zm-1.27-2.86c.006.396-.062 1.112-.82 1.59-.587.37-1.841.299-1.903-.395-.049-.555.461-.791.906-.898l1.816-.297zM99.096 10.149H97.85v-8.45h1.246v4.895l2.68-2.559h1.738l-2.633 2.535 2.715 3.578h-1.556l-2.077-2.707-.867.844v1.863zm6.053-6.114h-1.255v6.113h1.255V4.035zm-59.2 0h-1.255v6.113h1.255V4.035zm5.584 6.113V1.697h1.255v2.695c.361-.346 1-.485 1.47-.485 1.452 0 2.477 1.082 2.457 2.448v3.792h-1.27v-3.68c0-.408-.214-1.339-1.315-1.339-.968 0-1.342.756-1.342 1.339v3.681h-1.255zm-4.76-4.894V4.039h.621a.45.45 0 0 0 .45-.45v-.855h1.251v1.305h1.309v1.215h-1.309v3.109c0 .293.105.664.648.664.365 0 .531-.035.736-.07v1.137s-.361.113-.857.113c-1.398 0-1.777-1.051-1.777-1.788V5.254h-1.071zM36.528 4.039h-1.394l2.191 6.106h1.125l1.234-3.918 1.238 3.918h1.129l2.188-6.106h-1.383l-1.359 3.93-1.256-3.93h-1.124l-1.242 3.957-1.348-3.957zM26.212 7.141c-.02 1.566 1.187 3.129 3.223 3.129 1.566 0 2.383-.918 2.734-1.719L31.172 8c-.315.399-.801 1.094-1.738 1.094-1.145 0-1.825-.781-1.891-1.52h4.625c.074-.284.148-.995-.03-1.559-.336-1.064-1.221-2.102-2.839-2.102s-3.088 1.152-3.088 3.227zm1.363-.75h3.348c-.055-.43-.566-1.301-1.623-1.301a1.79 1.79 0 0 0-1.725 1.301zm-8.758.75c.038 1.758 1.277 3.133 3.145 3.133 1.074 0 1.723-.477 1.961-.672v.547h1.242V1.703h-1.258v2.888c-.414-.36-1.062-.68-1.93-.68-1.91 0-3.198 1.473-3.16 3.23zm1.309-.08c0 1.119.723 1.978 1.836 1.978a1.88 1.88 0 0 0 1.94-1.904c0-1.371-1.011-1.99-1.972-1.99s-1.805.798-1.805 1.916zm76.683-.028C96.771 5.275 95.532 3.9 93.664 3.9c-1.074 0-1.723.477-1.961.672v-.547h-1.242v8.22h1.258V9.583c.414.36 1.063.68 1.93.68 1.91 0 3.198-1.473 3.16-3.23zm-1.309.08c0-1.119-.723-1.978-1.836-1.978a1.88 1.88 0 0 0-1.94 1.904c0 1.371 1.011 1.99 1.972 1.99S95.5 8.231 95.5 7.113zM106.441 10.173V4.036h1.254v.382c.361-.346 1-.485 1.47-.485 1.452 0 2.477 1.082 2.457 2.448v3.792h-1.27V6.492c0-.408-.214-1.339-1.315-1.339-.969 0-1.342.756-1.342 1.339v3.681h-1.254zm-30.383-.021V1.824h1.084l4.215 5.777V1.824h1.32v8.328h-1.094l-4.207-5.796v5.796h-1.319zM5.24 10.149H4V2.377h1.014l2.664 3.597 2.654-3.592h1.03v7.766h-1.256V4.762L7.678 8.068 5.24 4.742v5.407z" transform="translate(440, 338)" fill="#80808088" stroke="none"></path></svg>